<svg width="100" height="100" viewBox="0 0 100 100" fill="none" xmlns="http://www.w3.org/2000/svg">
<path d="M50 0C22.3895 0 0 22.3821 0 49.9833C0 77.6179 22.3895 100 50 100C77.6104 100 100 77.6179 100 50.0167C100.033 22.3821 77.6439 0 50 0Z" fill="white"/>
<path d="M21.8214 21.5461C22.4907 21.5461 23.1266 21.5795 23.8294 21.613C30.8241 15.4906 39.9941 11.8104 50.0008 11.8104C61.4465 11.8104 71.7544 16.6281 79.0168 24.3564C79.6527 21.8137 77.7116 18.4347 73.1266 15.4236C66.4332 11.1413 58.5014 8.66553 50.0008 8.66553C37.9191 8.66553 27.0088 13.6505 19.2109 21.6799C19.7464 21.613 20.3154 21.5795 20.8843 21.5461C21.1855 21.5461 21.4867 21.5461 21.8214 21.5461Z" fill="black"/>
<path d="M49.5989 38.375C47.5909 38.5423 45.8842 39.9139 45.7503 41.4529C45.6164 42.9919 47.1559 44.1294 49.1638 43.9621C51.1718 43.7948 52.8786 42.4232 53.0125 40.8842C53.1463 39.3452 51.6069 38.2077 49.5989 38.375Z" fill="black"/>
<path d="M68.6091 38.2071C73.1271 38.0064 77.0093 36.8354 79.6867 34.895C81.6278 33.4564 82.8995 31.6163 83.2677 29.4417C83.7028 26.9325 82.8326 24.3229 80.9919 21.9141C81.427 23.085 81.5609 24.2894 81.3601 25.4604C80.6573 29.6089 75.9384 32.2854 69.8139 32.5196C54.8206 33.0884 34.0374 24.256 20.9518 24.624C17.0026 24.7578 13.3882 26.2299 11.012 28.6722C9.80718 29.9101 8.90357 31.4156 8.43503 33.1218C8.06689 34.4935 8.03342 35.8987 8.26769 37.2369C8.6693 39.7796 10.8781 42.1884 14.1579 42.891C15.2958 43.1252 16.4672 43.0917 17.4377 42.891C15.4631 41.5193 14.2918 39.6457 14.3922 37.6384C14.5261 35.1961 16.5341 33.1553 19.4123 32.0847C20.6171 31.6498 22.0227 31.3487 23.4953 31.2817C36.7483 30.8134 53.5154 38.8428 68.6091 38.2071Z" fill="black"/>
<path d="M88.2215 40.9846L89.2256 36.1C89.3929 35.364 89.7945 34.3938 91.0328 33.9923L91.0997 33.6243L87.6526 34.0257C84.5401 34.3938 82.4317 37.4717 81.8293 40.3489L81.5616 41.7541L79.5201 41.9883L78.9177 44.9993L80.9592 44.7651L78.8173 55.4041C78.7503 55.8725 78.6834 56.3409 78.6834 56.7424C78.014 57.4784 77.2443 58.0472 76.4745 58.3817C74.5669 59.1512 73.3286 58.1141 73.6968 56.0063L75.2697 48.2111C75.4705 47.2074 75.3701 46.2706 75.1024 45.4677C74.7008 44.1964 73.7972 43.2596 72.5589 42.8247C71.8226 42.557 70.9859 42.4901 70.0823 42.6239C67.7061 42.9585 65.7985 44.2633 64.5267 46.003C64.2925 46.3041 64.0917 46.6387 63.8909 46.9732C63.7905 46.003 63.4893 45.1666 62.8199 44.6648C62.2844 44.2633 61.6151 44.096 61.0796 44.1629L56.9297 44.6313L56.8628 44.9993C56.9632 44.9993 57.0301 44.9993 57.097 44.9993C57.3313 45.0328 57.4986 45.0997 57.599 45.2335C57.666 45.3339 57.7329 45.4342 57.7664 45.5681C57.9672 46.1703 57.7998 47.107 57.6994 47.5085L55.3567 59.0174C54.6205 59.9541 53.6834 60.7571 52.7128 61.1586C50.8052 61.928 49.5669 60.8909 49.935 58.7832L51.3072 51.9582C51.7423 49.817 51.9765 47.2074 50.504 46.1034C49.9685 45.7019 49.2992 45.5346 48.7637 45.6015L44.6138 46.0699L44.5468 46.4379C45.9524 46.2706 45.5508 48.278 45.417 48.9137L43.2416 59.5527C43.1747 59.8538 43.1412 60.1214 43.1412 60.3891C42.3715 61.3593 41.4344 62.1957 40.4304 62.5972C38.5227 63.3667 37.2844 62.3295 37.6526 60.2218L40.4973 46.2037C40.9324 44.0625 41.1666 41.453 39.6941 40.3489C39.1586 39.9475 38.4893 39.7802 37.9538 39.8471L33.8038 40.3155L33.7369 40.6835C35.1425 40.5162 34.7409 42.4901 34.6071 43.1592V43.1927C34.6071 43.1927 34.6071 43.1927 34.6071 43.1592L30.9926 60.9913C30.5241 63.6343 31.1265 65.5078 32.5321 66.4446C33.67 67.2141 35.3768 67.3479 37.4518 66.7457C39.7275 66.1101 41.7021 64.5376 43.2751 62.5972C43.5093 63.6678 44.0448 64.5042 44.8146 65.006C45.9524 65.7755 47.6593 65.9093 49.7342 65.3071C51.6753 64.7718 53.3822 63.5674 54.7878 62.0284L54.4197 63.902L61.0796 63.1325L63.7235 50.0846C64.1586 48.4118 65.5308 47.0736 66.5683 46.6387C68.0408 46.0364 69.0783 46.8394 68.7102 48.4453L67.0033 56.8427C66.5348 59.4858 67.1372 61.3593 68.5428 62.2961C69.6807 63.0656 71.3875 63.1994 73.4625 62.5972C75.5709 61.995 77.4116 60.6233 78.9177 58.8836C79.1854 59.7869 79.6874 60.4894 80.3567 60.9244C81.4946 61.6939 83.2015 61.8277 85.2764 61.2255C85.4438 61.192 85.6446 61.1251 85.8454 61.0247C87.5522 60.3556 89.7276 58.4486 89.8614 56.1736C89.0248 57.0769 87.8869 57.2777 87.3179 57.3111C87.2845 57.3111 87.2845 57.3111 87.251 57.3111C87.2175 57.3111 87.1841 57.3111 87.1506 57.3111C85.9123 57.3111 85.243 56.3074 85.5107 54.6681L87.6526 44.0291L90.6646 43.6945L91.2671 40.6835L88.2215 40.9846Z" fill="black"/>
<path d="M86.0099 64.1356C85.5414 64.2694 85.0728 64.3698 84.6378 64.4367C79.2161 78.2875 65.7623 88.0901 49.9992 88.0901C36.8801 88.0901 25.3339 81.2651 18.7409 70.9941L18.2389 71.061L15.1934 71.3955C22.2215 83.3059 35.1733 91.3019 49.9992 91.3019C68.105 91.3019 83.4664 79.3581 88.5534 62.9312C88.018 63.2657 87.449 63.5668 86.9135 63.7676C86.6123 63.9348 86.3111 64.0352 86.0099 64.1356Z" fill="black"/>
<path d="M25.1674 48.2111C25.1674 48.2111 27.008 39.0442 27.0749 38.7765C27.2423 38.0405 27.6439 37.0703 28.8821 36.6688L28.949 36.3008L25.4686 36.7023C22.3562 37.0703 20.2813 40.1482 19.6789 43.0254L18.4741 48.9806L16.4327 49.2148L15.8303 52.2258L17.8717 51.9917L14.5586 68.3516L21.2184 67.5822L24.5315 51.2222L30.2208 50.553L30.8231 47.542L25.1674 48.2111Z" fill="black"/>
<path d="M28.4792 70.3924C28.8474 69.9909 29.4832 69.9909 29.8848 70.3924C30.2864 70.7604 30.2864 71.3961 29.8848 71.7976C29.5167 72.199 28.8808 72.199 28.4792 71.7976C28.1111 71.4295 28.1111 70.7939 28.4792 70.3924Z" fill="black"/>
<path d="M30.9563 72.8005C31.6591 71.8303 32.9643 71.6296 33.9683 72.3656C34.6376 72.8674 34.8384 73.4696 34.8384 74.0719L33.7675 74.1053C33.7675 73.7373 33.6336 73.4027 33.3324 73.202C32.8639 72.8674 32.2615 73.0013 31.8933 73.5031C31.5252 74.0049 31.5587 74.6406 32.0272 74.9752C32.3619 75.2428 32.6965 75.2094 33.0647 75.109L33.3993 76.1127C32.7635 76.3134 32.1276 76.3134 31.3913 75.7781C30.4543 75.109 30.22 73.8042 30.9563 72.8005Z" fill="black"/>
<path d="M34.5059 77.4846L35.2756 76.9493C35.376 77.1166 35.5099 77.2169 35.6437 77.2839C35.7441 77.3173 35.878 77.3508 36.0453 77.2839L35.9449 73.8379L37.0828 74.4066V76.5478L38.7226 75.2096L39.827 75.7449L36.9824 77.8526C36.313 78.3544 35.8445 78.4548 35.2756 78.1537C34.9075 77.9864 34.6732 77.7522 34.5059 77.4846Z" fill="black"/>
<path d="M41.3649 78.3553L40.5951 76.0469L41.8668 76.3814L42.235 77.6862L43.2724 76.7829L44.5107 77.1175L42.67 78.6899L43.4397 81.0987L42.168 80.7642L41.7664 79.359L40.6621 80.3292L39.4238 79.9612L41.3649 78.3553Z" fill="black"/>
<path d="M47.9247 80.0273L47.5566 78.8229L46.9876 79.9604L47.9247 80.0273ZM47.155 77.4177L48.2594 77.5181L49.6649 81.8005L48.4602 81.7001L48.2259 80.9306L46.653 80.7968L46.2849 81.4994L45.0801 81.399L47.155 77.4177Z" fill="black"/>
<path d="M52.8448 79.5256C53.2464 79.4922 53.4806 79.258 53.4472 78.9234C53.4137 78.5554 53.146 78.4216 52.7444 78.455L52.2089 78.4885L52.3093 79.5591L52.8448 79.5256ZM50.9707 77.6186L52.7444 77.4513C53.7818 77.351 54.4846 77.8194 54.585 78.7561C54.6854 79.7264 53.9826 80.2951 52.9452 80.3955L52.3763 80.4624L52.4767 81.6334L51.3388 81.7337L50.9707 77.6186Z" fill="black"/>
<path d="M55.4219 77.1504L56.4928 76.8493L57.1287 79.0909L58.0322 76.4144L59.0697 76.1467L60.1406 80.128L59.0697 80.4291L58.4673 78.1876L57.5302 80.8306L56.4928 81.0982L55.4219 77.1504Z" fill="black"/>
<path d="M60.3418 75.6782L61.3792 75.1763L62.1155 76.6819L62.651 74.5741L63.8892 73.9719L63.2534 76.2469L65.6964 77.6521L64.4581 78.2543L62.8852 77.3175L62.7179 77.9197L63.153 78.8899L62.149 79.3583L60.3418 75.6782Z" fill="black"/>
<path d="M64.7598 73.4359L65.6633 72.7668L67.0355 74.6403L66.9351 71.83L67.8052 71.1943L70.2482 74.5399L69.3111 75.1756L67.9725 73.3021L68.0394 76.1124L67.1693 76.748L64.7598 73.4359Z" fill="black"/>
<path d="M70.1472 71.7629C69.7791 71.3615 69.7791 70.7593 70.1472 70.3578C70.5488 69.9898 71.1512 69.9563 71.5528 70.3578C71.9209 70.7593 71.9209 71.3615 71.5528 71.7629C71.1846 72.1644 70.5488 72.1644 70.1472 71.7629Z" fill="black"/>
<path d="M41.6351 22.5155L42.8733 21.01C43.1745 20.642 43.2749 20.4078 43.208 20.1736C43.141 19.9059 42.9402 19.8056 42.6725 19.8725C42.4048 19.9394 42.2375 20.1401 42.0032 20.575L41.0996 20.1401C41.4008 19.471 41.7355 19.0695 42.5387 18.9022C43.4088 18.7015 44.145 19.0695 44.3124 19.839C44.4797 20.4747 44.212 20.9096 43.71 21.4784L43.141 22.114L44.7809 21.7125L45.0151 22.6159L41.8359 23.3853L41.6351 22.5155Z" fill="black"/>
<path d="M48.1928 20.1739C48.1259 19.5383 47.7912 19.0699 47.3227 19.1034C46.8876 19.1368 46.6199 19.6386 46.6533 20.3078C46.7203 20.9769 47.0549 21.4118 47.5235 21.3784C48.0255 21.3114 48.2597 20.8431 48.1928 20.1739ZM45.549 20.3747C45.4486 19.2037 46.1179 18.1666 47.2557 18.0662C48.427 17.9658 49.2302 18.8692 49.3306 20.0401C49.431 21.2111 48.7952 22.2482 47.5904 22.3486C46.4526 22.449 45.6494 21.5791 45.549 20.3747Z" fill="black"/>
<path d="M53.0799 20.2743C53.1134 19.6386 52.8457 19.1368 52.4106 19.1033C51.9421 19.0699 51.6409 19.5048 51.574 20.1739C51.507 20.8431 51.8082 21.3114 52.2433 21.3449C52.7118 21.3784 53.0465 20.9434 53.0799 20.2743ZM50.4361 20.0736C50.5365 18.9026 51.3397 17.9993 52.511 18.0997C53.6823 18.2 54.3182 19.2037 54.2513 20.3747C54.1509 21.5456 53.3477 22.4489 52.1763 22.3486C50.9716 22.2482 50.3357 21.2445 50.4361 20.0736Z" fill="black"/>
<path d="M54.8529 21.6796L56.6266 20.8766C57.0617 20.6759 57.2625 20.5086 57.2959 20.2744C57.3629 20.0068 57.229 19.8395 56.9278 19.7726C56.6601 19.7057 56.4258 19.806 56.0242 20.1071L55.4218 19.3042C55.9907 18.8358 56.4593 18.6351 57.2624 18.8358C58.1326 19.0365 58.6346 19.7057 58.4338 20.4752C58.2999 21.1108 57.8983 21.3785 57.1955 21.6796L56.3923 22.0141L58.0656 22.3821L57.8648 23.2855L54.6855 22.5494L54.8529 21.6796Z" fill="black"/>
</svg>
