<svg width="200" height="200" viewBox="0 0 200 200" fill="none" xmlns="http://www.w3.org/2000/svg">
<circle cx="100" cy="100" r="100" fill="white"/>
<path d="M81.1969 140.381C78.9177 141.833 76.6111 141.918 74.2772 140.636C71.9433 139.353 70.7741 137.37 70.7695 134.684V65.3178C70.7695 62.6369 71.9388 60.6531 74.2772 59.3663C76.6157 58.0795 78.9222 58.1644 81.1969 59.621L136.923 94.3043C138.975 95.6447 140 97.5436 140 100.001C140 102.458 138.975 104.357 136.923 105.698L81.1969 140.381Z" fill="white"/>
<path d="M81.1969 140.381C78.9177 141.833 76.6111 141.918 74.2772 140.636C71.9433 139.353 70.7741 137.37 70.7695 134.684V65.3178C70.7695 62.6369 71.9388 60.6531 74.2772 59.3663C76.6157 58.0795 78.9222 58.1644 81.1969 59.621L136.923 94.3043C138.975 95.6447 140 97.5436 140 100.001C140 102.458 138.975 104.357 136.923 105.698L81.1969 140.381Z" fill="url(#paint0_linear_2007_2707)"/>
<defs>
<linearGradient id="paint0_linear_2007_2707" x1="73.3729" y1="103.517" x2="137.141" y2="104.544" gradientUnits="userSpaceOnUse">
<stop stop-color="#EA2815"/>
<stop offset="1" stop-color="#D30B54"/>
</linearGradient>
</defs>
</svg>
